<svg width="951" height="848" viewBox="0 0 951 848" fill="none" xmlns="http://www.w3.org/2000/svg">
<g opacity="0.8" filter="url(#filter0_f_9_43)">
<circle cx="475.5" cy="475.5" r="275.5" fill="#52A48E" fill-opacity="0.18"></circle>
</g>
<path d="M458 182.003C368.633 181.616 282.762 217.557 219.215 281.946C155.667 346.334 119.629 433.916 119 525.491C118.939 570.652 127.677 615.371 144.704 657.026C161.732 698.681 186.704 736.432 218.157 768.067C231.482 781.483 249.415 789 268.096 789C286.776 789 304.709 781.483 318.034 768.067C324.59 761.455 329.797 753.573 333.352 744.879C336.906 736.185 338.736 726.853 338.736 717.427C338.736 708.001 336.906 698.669 333.352 689.975C329.797 681.281 324.59 673.398 318.034 666.787C299.697 648.309 285.134 626.275 275.194 601.971C265.253 577.666 260.133 551.577 260.133 525.224C260.133 498.872 265.253 472.782 275.194 448.478C285.134 424.173 299.697 402.14 318.034 383.662C355.303 346.091 405.489 325.035 457.77 325.035C510.051 325.035 560.238 346.091 597.507 383.662C615.843 402.14 630.406 424.173 640.347 448.478C650.288 472.782 655.408 498.872 655.408 525.224C655.408 551.577 650.288 577.666 640.347 601.971C630.406 626.275 615.843 648.309 597.507 666.787C590.951 673.398 585.744 681.281 582.189 689.975C578.635 698.669 576.804 708.001 576.804 717.427C576.804 726.853 578.635 736.185 582.189 744.879C585.744 753.573 590.951 761.455 597.507 768.067C610.832 781.483 628.765 789 647.445 789C666.126 789 684.059 781.483 697.383 768.067C728.92 736.472 753.977 698.738 771.084 657.081C788.191 615.425 797.002 570.685 797 525.491C796.372 433.916 760.333 346.334 696.785 281.946C633.238 217.557 547.367 181.616 458 182.003Z" fill="url(#paint0_linear_9_43)"></path>
<rect x="181" y="226" width="433" height="329" rx="6" fill="#EFFCF7"></rect>
<rect x="357" y="318" width="336" height="255" rx="6" fill="#D5ECE3"></rect>
<rect x="565" y="403" width="256" height="110" rx="6" fill="#C9D7D6"></rect>
<rect x="294" y="632" width="373" height="56" rx="6" fill="#11484B"></rect>
<path d="M378.408 667.192C377.661 667.192 376.968 667.053 376.328 666.776C375.688 666.488 375.144 666.099 374.696 665.608C374.248 665.117 373.917 664.552 373.704 663.912L375.304 663.24C375.592 663.976 376.013 664.541 376.568 664.936C377.123 665.331 377.763 665.528 378.488 665.528C378.915 665.528 379.288 665.464 379.608 665.336C379.928 665.197 380.173 665.005 380.344 664.76C380.525 664.515 380.616 664.232 380.616 663.912C380.616 663.475 380.493 663.128 380.248 662.872C380.003 662.616 379.64 662.413 379.16 662.264L376.92 661.56C376.024 661.283 375.341 660.861 374.872 660.296C374.403 659.72 374.168 659.048 374.168 658.28C374.168 657.608 374.333 657.021 374.664 656.52C374.995 656.008 375.448 655.608 376.024 655.32C376.611 655.032 377.277 654.888 378.024 654.888C378.739 654.888 379.389 655.016 379.976 655.272C380.563 655.517 381.064 655.859 381.48 656.296C381.907 656.733 382.216 657.24 382.408 657.816L380.84 658.504C380.605 657.875 380.237 657.389 379.736 657.048C379.245 656.707 378.675 656.536 378.024 656.536C377.629 656.536 377.283 656.605 376.984 656.744C376.685 656.872 376.451 657.064 376.28 657.32C376.12 657.565 376.04 657.853 376.04 658.184C376.04 658.568 376.163 658.909 376.408 659.208C376.653 659.507 377.027 659.731 377.528 659.88L379.608 660.536C380.557 660.824 381.272 661.24 381.752 661.784C382.232 662.317 382.472 662.984 382.472 663.784C382.472 664.445 382.296 665.032 381.944 665.544C381.603 666.056 381.128 666.461 380.52 666.76C379.912 667.048 379.208 667.192 378.408 667.192ZM388.591 667.192C387.759 667.192 386.997 666.995 386.303 666.6C385.621 666.205 385.077 665.667 384.671 664.984C384.266 664.301 384.063 663.528 384.063 662.664C384.063 661.789 384.266 661.016 384.671 660.344C385.077 659.661 385.621 659.128 386.303 658.744C386.986 658.349 387.749 658.152 388.591 658.152C389.445 658.152 390.207 658.349 390.879 658.744C391.562 659.128 392.101 659.661 392.495 660.344C392.901 661.016 393.103 661.789 393.103 662.664C393.103 663.539 392.901 664.317 392.495 665C392.09 665.683 391.546 666.221 390.863 666.616C390.181 667 389.423 667.192 388.591 667.192ZM388.591 665.512C389.103 665.512 389.557 665.389 389.951 665.144C390.346 664.899 390.655 664.563 390.879 664.136C391.114 663.699 391.231 663.208 391.231 662.664C391.231 662.12 391.114 661.635 390.879 661.208C390.655 660.781 390.346 660.445 389.951 660.2C389.557 659.955 389.103 659.832 388.591 659.832C388.09 659.832 387.637 659.955 387.231 660.2C386.837 660.445 386.522 660.781 386.287 661.208C386.063 661.635 385.951 662.12 385.951 662.664C385.951 663.208 386.063 663.699 386.287 664.136C386.522 664.563 386.837 664.899 387.231 665.144C387.637 665.389 388.09 665.512 388.591 665.512ZM394.868 667V654.888H396.677V667H394.868ZM398.79 667V658.344H400.598V667H398.79ZM398.79 657.16V655.08H400.598V657.16H398.79ZM406.824 667.192C405.96 667.192 405.192 666.995 404.52 666.6C403.859 666.195 403.331 665.651 402.936 664.968C402.552 664.285 402.36 663.512 402.36 662.648C402.36 661.795 402.552 661.027 402.936 660.344C403.32 659.661 403.848 659.128 404.52 658.744C405.192 658.349 405.96 658.152 406.824 658.152C407.411 658.152 407.96 658.259 408.472 658.472C408.984 658.675 409.427 658.957 409.8 659.32C410.184 659.683 410.467 660.104 410.648 660.584L409.064 661.32C408.883 660.872 408.59 660.515 408.184 660.248C407.79 659.971 407.336 659.832 406.824 659.832C406.334 659.832 405.891 659.955 405.496 660.2C405.112 660.435 404.808 660.771 404.584 661.208C404.36 661.635 404.248 662.12 404.248 662.664C404.248 663.208 404.36 663.699 404.584 664.136C404.808 664.563 405.112 664.899 405.496 665.144C405.891 665.389 406.334 665.512 406.824 665.512C407.347 665.512 407.8 665.379 408.184 665.112C408.579 664.835 408.872 664.467 409.064 664.008L410.648 664.76C410.478 665.219 410.2 665.635 409.816 666.008C409.443 666.371 409 666.659 408.488 666.872C407.976 667.085 407.422 667.192 406.824 667.192ZM412.415 667V658.344H414.223V667H412.415ZM412.415 657.16V655.08H414.223V657.16H412.415ZM420.081 667.096C419.175 667.096 418.471 666.84 417.969 666.328C417.468 665.816 417.217 665.096 417.217 664.168V659.976H415.697V658.344H415.937C416.343 658.344 416.657 658.227 416.881 657.992C417.105 657.757 417.217 657.437 417.217 657.032V656.36H419.025V658.344H420.993V659.976H419.025V664.088C419.025 664.387 419.073 664.643 419.169 664.856C419.265 665.059 419.42 665.219 419.633 665.336C419.847 665.443 420.124 665.496 420.465 665.496C420.551 665.496 420.647 665.491 420.753 665.48C420.86 665.469 420.961 665.459 421.057 665.448V667C420.908 667.021 420.743 667.043 420.561 667.064C420.38 667.085 420.22 667.096 420.081 667.096ZM425.336 667.192C424.749 667.192 424.232 667.091 423.784 666.888C423.346 666.675 423.005 666.387 422.76 666.024C422.514 665.651 422.392 665.213 422.392 664.712C422.392 664.243 422.493 663.821 422.696 663.448C422.909 663.075 423.234 662.76 423.672 662.504C424.109 662.248 424.658 662.067 425.32 661.96L428.328 661.464V662.888L425.672 663.352C425.192 663.437 424.84 663.592 424.616 663.816C424.392 664.029 424.28 664.307 424.28 664.648C424.28 664.979 424.402 665.251 424.648 665.464C424.904 665.667 425.229 665.768 425.624 665.768C426.114 665.768 426.541 665.661 426.904 665.448C427.277 665.235 427.565 664.952 427.768 664.6C427.97 664.237 428.072 663.837 428.072 663.4V661.176C428.072 660.749 427.912 660.403 427.592 660.136C427.282 659.859 426.866 659.72 426.344 659.72C425.864 659.72 425.442 659.848 425.08 660.104C424.728 660.349 424.466 660.669 424.296 661.064L422.792 660.312C422.952 659.885 423.213 659.512 423.576 659.192C423.938 658.861 424.36 658.605 424.84 658.424C425.33 658.243 425.848 658.152 426.391 658.152C427.074 658.152 427.677 658.28 428.2 658.536C428.733 658.792 429.144 659.149 429.432 659.608C429.73 660.056 429.88 660.579 429.88 661.176V667H428.152V665.432L428.52 665.48C428.317 665.832 428.056 666.136 427.736 666.392C427.426 666.648 427.069 666.845 426.664 666.984C426.269 667.123 425.826 667.192 425.336 667.192ZM431.993 667V658.344H433.722V660.088L433.562 659.832C433.754 659.267 434.063 658.861 434.49 658.616C434.916 658.36 435.428 658.232 436.026 658.232H436.554V659.88H435.802C435.204 659.88 434.719 660.067 434.346 660.44C433.983 660.803 433.802 661.325 433.802 662.008V667H431.993ZM444.587 667.192C443.755 667.192 443.009 666.995 442.347 666.6C441.697 666.195 441.179 665.651 440.795 664.968C440.422 664.285 440.235 663.517 440.235 662.664C440.235 661.811 440.427 661.043 440.811 660.36C441.195 659.677 441.713 659.139 442.363 658.744C443.014 658.349 443.75 658.152 444.571 658.152C445.265 658.152 445.878 658.291 446.411 658.568C446.945 658.845 447.366 659.229 447.675 659.72L447.403 660.136V654.888H449.195V667H447.483V665.24L447.691 665.576C447.393 666.099 446.966 666.499 446.411 666.776C445.857 667.053 445.249 667.192 444.587 667.192ZM444.763 665.512C445.265 665.512 445.713 665.389 446.107 665.144C446.513 664.899 446.827 664.563 447.051 664.136C447.286 663.699 447.403 663.208 447.403 662.664C447.403 662.12 447.286 661.635 447.051 661.208C446.827 660.781 446.513 660.445 446.107 660.2C445.713 659.955 445.265 659.832 444.763 659.832C444.262 659.832 443.809 659.955 443.403 660.2C442.998 660.445 442.683 660.781 442.459 661.208C442.235 661.635 442.123 662.12 442.123 662.664C442.123 663.208 442.235 663.699 442.459 664.136C442.683 664.563 442.993 664.899 443.387 665.144C443.793 665.389 444.251 665.512 444.763 665.512ZM455.37 667.192C454.506 667.192 453.738 666.995 453.066 666.6C452.405 666.195 451.887 665.651 451.514 664.968C451.141 664.275 450.954 663.501 450.954 662.648C450.954 661.773 451.141 661 451.514 660.328C451.898 659.656 452.41 659.128 453.05 658.744C453.69 658.349 454.415 658.152 455.226 658.152C455.877 658.152 456.458 658.264 456.97 658.488C457.482 658.712 457.914 659.021 458.266 659.416C458.618 659.8 458.885 660.243 459.066 660.744C459.258 661.245 459.354 661.779 459.354 662.344C459.354 662.483 459.349 662.627 459.338 662.776C459.327 662.925 459.306 663.064 459.274 663.192H452.378V661.752H458.25L457.386 662.408C457.493 661.885 457.455 661.421 457.274 661.016C457.103 660.6 456.837 660.275 456.474 660.04C456.122 659.795 455.706 659.672 455.226 659.672C454.746 659.672 454.319 659.795 453.946 660.04C453.573 660.275 453.285 660.616 453.082 661.064C452.879 661.501 452.799 662.035 452.842 662.664C452.789 663.251 452.869 663.763 453.082 664.2C453.306 664.637 453.615 664.979 454.01 665.224C454.415 665.469 454.874 665.592 455.386 665.592C455.909 665.592 456.351 665.475 456.714 665.24C457.087 665.005 457.381 664.701 457.594 664.328L459.066 665.048C458.895 665.453 458.629 665.821 458.266 666.152C457.914 666.472 457.487 666.728 456.986 666.92C456.495 667.101 455.957 667.192 455.37 667.192ZM461.118 667V658.344H462.847V660.216L462.623 659.928C462.804 659.341 463.135 658.899 463.615 658.6C464.095 658.301 464.644 658.152 465.263 658.152C465.956 658.152 466.569 658.339 467.103 658.712C467.647 659.075 468.009 659.56 468.191 660.168L467.679 660.216C467.935 659.523 468.324 659.005 468.847 658.664C469.38 658.323 469.988 658.152 470.671 658.152C471.268 658.152 471.807 658.291 472.287 658.568C472.777 658.845 473.167 659.229 473.455 659.72C473.743 660.211 473.887 660.771 473.887 661.4V667H472.079V661.896C472.079 661.459 471.999 661.091 471.839 660.792C471.689 660.483 471.476 660.248 471.199 660.088C470.932 659.917 470.617 659.832 470.255 659.832C469.892 659.832 469.572 659.917 469.295 660.088C469.017 660.248 468.799 660.483 468.639 660.792C468.479 661.101 468.399 661.469 468.399 661.896V667H466.607V661.896C466.607 661.459 466.527 661.091 466.367 660.792C466.217 660.483 466.004 660.248 465.727 660.088C465.46 659.917 465.14 659.832 464.766 659.832C464.404 659.832 464.084 659.917 463.807 660.088C463.529 660.248 463.311 660.483 463.151 660.792C463.001 661.101 462.927 661.469 462.927 661.896V667H461.118ZM479.998 667.192C479.166 667.192 478.403 666.995 477.71 666.6C477.027 666.205 476.483 665.667 476.078 664.984C475.672 664.301 475.47 663.528 475.47 662.664C475.47 661.789 475.672 661.016 476.078 660.344C476.483 659.661 477.027 659.128 477.71 658.744C478.392 658.349 479.155 658.152 479.998 658.152C480.851 658.152 481.614 658.349 482.286 658.744C482.968 659.128 483.507 659.661 483.902 660.344C484.307 661.016 484.51 661.789 484.51 662.664C484.51 663.539 484.307 664.317 483.902 665C483.496 665.683 482.952 666.221 482.27 666.616C481.587 667 480.83 667.192 479.998 667.192ZM479.998 665.512C480.51 665.512 480.963 665.389 481.358 665.144C481.752 664.899 482.062 664.563 482.286 664.136C482.52 663.699 482.638 663.208 482.638 662.664C482.638 662.12 482.52 661.635 482.286 661.208C482.062 660.781 481.752 660.445 481.358 660.2C480.963 659.955 480.51 659.832 479.998 659.832C479.496 659.832 479.043 659.955 478.638 660.2C478.243 660.445 477.928 660.781 477.694 661.208C477.47 661.635 477.358 662.12 477.358 662.664C477.358 663.208 477.47 663.699 477.694 664.136C477.928 664.563 478.243 664.899 478.638 665.144C479.043 665.389 479.496 665.512 479.998 665.512ZM486.275 667V658.344H488.003V660.04L487.795 659.816C488.008 659.272 488.349 658.861 488.819 658.584C489.288 658.296 489.832 658.152 490.451 658.152C491.091 658.152 491.656 658.291 492.147 658.568C492.637 658.845 493.021 659.229 493.299 659.72C493.576 660.211 493.715 660.776 493.715 661.416V667H491.923V661.896C491.923 661.459 491.843 661.091 491.683 660.792C491.523 660.483 491.293 660.248 490.995 660.088C490.707 659.917 490.376 659.832 490.003 659.832C489.629 659.832 489.293 659.917 488.995 660.088C488.707 660.248 488.483 660.483 488.323 660.792C488.163 661.101 488.083 661.469 488.083 661.896V667H486.275ZM498.85 667.192C497.964 667.192 497.186 666.973 496.514 666.536C495.852 666.099 495.388 665.512 495.122 664.776L496.514 664.12C496.748 664.611 497.068 665 497.474 665.288C497.89 665.576 498.348 665.72 498.85 665.72C499.276 665.72 499.623 665.624 499.89 665.432C500.156 665.24 500.29 664.979 500.29 664.648C500.29 664.435 500.231 664.264 500.114 664.136C499.996 663.997 499.847 663.885 499.666 663.8C499.495 663.715 499.319 663.651 499.138 663.608L497.778 663.224C497.031 663.011 496.471 662.691 496.098 662.264C495.735 661.827 495.554 661.32 495.554 660.744C495.554 660.221 495.687 659.768 495.954 659.384C496.22 658.989 496.588 658.685 497.058 658.472C497.527 658.259 498.055 658.152 498.642 658.152C499.431 658.152 500.135 658.349 500.754 658.744C501.372 659.128 501.81 659.667 502.066 660.36L500.674 661.016C500.503 660.6 500.231 660.269 499.858 660.024C499.495 659.779 499.084 659.656 498.626 659.656C498.231 659.656 497.916 659.752 497.682 659.944C497.447 660.125 497.33 660.365 497.33 660.664C497.33 660.867 497.383 661.037 497.49 661.176C497.596 661.304 497.735 661.411 497.906 661.496C498.076 661.571 498.252 661.635 498.434 661.688L499.842 662.104C500.556 662.307 501.106 662.627 501.49 663.064C501.874 663.491 502.066 664.003 502.066 664.6C502.066 665.112 501.927 665.565 501.65 665.96C501.383 666.344 501.01 666.648 500.53 666.872C500.05 667.085 499.49 667.192 498.85 667.192ZM507.581 667.096C506.675 667.096 505.971 666.84 505.469 666.328C504.968 665.816 504.717 665.096 504.717 664.168V659.976H503.197V658.344H503.437C503.843 658.344 504.157 658.227 504.381 657.992C504.605 657.757 504.717 657.437 504.717 657.032V656.36H506.525V658.344H508.493V659.976H506.525V664.088C506.525 664.387 506.573 664.643 506.669 664.856C506.765 665.059 506.92 665.219 507.133 665.336C507.347 665.443 507.624 665.496 507.965 665.496C508.051 665.496 508.147 665.491 508.253 665.48C508.36 665.469 508.461 665.459 508.557 665.448V667C508.408 667.021 508.243 667.043 508.061 667.064C507.88 667.085 507.72 667.096 507.581 667.096ZM510.322 667V658.344H512.05V660.088L511.89 659.832C512.082 659.267 512.391 658.861 512.818 658.616C513.244 658.36 513.756 658.232 514.354 658.232H514.882V659.88H514.13C513.532 659.88 513.047 660.067 512.674 660.44C512.311 660.803 512.13 661.325 512.13 662.008V667H510.322ZM518.711 667.192C518.124 667.192 517.607 667.091 517.159 666.888C516.721 666.675 516.38 666.387 516.135 666.024C515.889 665.651 515.767 665.213 515.767 664.712C515.767 664.243 515.868 663.821 516.071 663.448C516.284 663.075 516.609 662.76 517.047 662.504C517.484 662.248 518.033 662.067 518.695 661.96L521.703 661.464V662.888L519.047 663.352C518.567 663.437 518.215 663.592 517.991 663.816C517.767 664.029 517.655 664.307 517.655 664.648C517.655 664.979 517.777 665.251 518.023 665.464C518.279 665.667 518.604 665.768 518.999 665.768C519.489 665.768 519.916 665.661 520.279 665.448C520.652 665.235 520.94 664.952 521.143 664.6C521.345 664.237 521.447 663.837 521.447 663.4V661.176C521.447 660.749 521.287 660.403 520.967 660.136C520.657 659.859 520.241 659.72 519.719 659.72C519.239 659.72 518.817 659.848 518.455 660.104C518.103 660.349 517.841 660.669 517.671 661.064L516.167 660.312C516.327 659.885 516.588 659.512 516.951 659.192C517.313 658.861 517.735 658.605 518.215 658.424C518.705 658.243 519.223 658.152 519.766 658.152C520.449 658.152 521.052 658.28 521.575 658.536C522.108 658.792 522.519 659.149 522.807 659.608C523.105 660.056 523.255 660.579 523.255 661.176V667H521.527V665.432L521.895 665.48C521.692 665.832 521.431 666.136 521.111 666.392C520.801 666.648 520.444 666.845 520.039 666.984C519.644 667.123 519.201 667.192 518.711 667.192ZM529.481 667.192C528.617 667.192 527.849 666.995 527.177 666.6C526.515 666.195 525.987 665.651 525.593 664.968C525.209 664.285 525.017 663.512 525.017 662.648C525.017 661.795 525.209 661.027 525.593 660.344C525.977 659.661 526.505 659.128 527.177 658.744C527.849 658.349 528.617 658.152 529.481 658.152C530.067 658.152 530.617 658.259 531.129 658.472C531.641 658.675 532.083 658.957 532.457 659.32C532.841 659.683 533.123 660.104 533.305 660.584L531.721 661.32C531.539 660.872 531.246 660.515 530.841 660.248C530.446 659.971 529.993 659.832 529.481 659.832C528.99 659.832 528.547 659.955 528.153 660.2C527.769 660.435 527.465 660.771 527.241 661.208C527.017 661.635 526.905 662.12 526.905 662.664C526.905 663.208 527.017 663.699 527.241 664.136C527.465 664.563 527.769 664.899 528.153 665.144C528.547 665.389 528.99 665.512 529.481 665.512C530.003 665.512 530.457 665.379 530.841 665.112C531.235 664.835 531.529 664.467 531.721 664.008L533.305 664.76C533.134 665.219 532.857 665.635 532.473 666.008C532.099 666.371 531.657 666.659 531.145 666.872C530.633 667.085 530.078 667.192 529.481 667.192ZM529.657 670.76C529.358 670.76 529.043 670.712 528.713 670.616C528.382 670.52 528.105 670.381 527.881 670.2L528.297 669.112C528.457 669.24 528.633 669.336 528.825 669.4C529.027 669.475 529.225 669.512 529.417 669.512C529.651 669.512 529.833 669.459 529.961 669.352C530.099 669.245 530.169 669.101 530.169 668.92C530.169 668.707 530.041 668.536 529.785 668.408C529.539 668.28 529.155 668.189 528.633 668.136L528.985 666.84H530.105L529.929 667.528C530.494 667.613 530.926 667.789 531.225 668.056C531.534 668.323 531.689 668.659 531.689 669.064C531.689 669.565 531.502 669.971 531.129 670.28C530.755 670.6 530.265 670.76 529.657 670.76ZM537.586 667.192C536.999 667.192 536.482 667.091 536.034 666.888C535.596 666.675 535.255 666.387 535.01 666.024C534.764 665.651 534.642 665.213 534.642 664.712C534.642 664.243 534.743 663.821 534.946 663.448C535.159 663.075 535.484 662.76 535.922 662.504C536.359 662.248 536.908 662.067 537.57 661.96L540.578 661.464V662.888L537.922 663.352C537.442 663.437 537.09 663.592 536.866 663.816C536.642 664.029 536.53 664.307 536.53 664.648C536.53 664.979 536.652 665.251 536.898 665.464C537.154 665.667 537.479 665.768 537.874 665.768C538.364 665.768 538.791 665.661 539.154 665.448C539.527 665.235 539.815 664.952 540.018 664.6C540.22 664.237 540.322 663.837 540.322 663.4V661.176C540.322 660.749 540.162 660.403 539.842 660.136C539.532 659.859 539.116 659.72 538.594 659.72C538.114 659.72 537.692 659.848 537.33 660.104C536.978 660.349 536.716 660.669 536.546 661.064L535.042 660.312C535.202 659.885 535.463 659.512 535.826 659.192C536.188 658.861 536.61 658.605 537.09 658.424C537.58 658.243 538.098 658.152 538.641 658.152C539.324 658.152 539.927 658.28 540.45 658.536C540.983 658.792 541.394 659.149 541.682 659.608C541.98 660.056 542.13 660.579 542.13 661.176V667H540.402V665.432L540.77 665.48C540.567 665.832 540.306 666.136 539.986 666.392C539.676 666.648 539.319 666.845 538.914 666.984C538.519 667.123 538.076 667.192 537.586 667.192ZM539.746 656.76C539.458 656.76 539.218 656.712 539.026 656.616C538.844 656.52 538.684 656.413 538.546 656.296C538.418 656.179 538.284 656.072 538.146 655.976C538.018 655.88 537.863 655.832 537.682 655.832C537.5 655.832 537.362 655.901 537.266 656.04C537.17 656.179 537.122 656.397 537.122 656.696H535.698C535.698 655.907 535.874 655.325 536.226 654.952C536.578 654.568 537.015 654.376 537.538 654.376C537.836 654.376 538.076 654.424 538.258 654.52C538.45 654.605 538.615 654.712 538.754 654.84C538.892 654.957 539.026 655.064 539.154 655.16C539.292 655.245 539.447 655.288 539.618 655.288C539.82 655.288 539.964 655.213 540.05 655.064C540.146 654.915 540.194 654.707 540.194 654.44H541.602C541.602 655.187 541.42 655.763 541.058 656.168C540.706 656.563 540.268 656.76 539.746 656.76ZM548.42 667.192C547.588 667.192 546.825 666.995 546.132 666.6C545.449 666.205 544.905 665.667 544.5 664.984C544.094 664.301 543.892 663.528 543.892 662.664C543.892 661.789 544.094 661.016 544.5 660.344C544.905 659.661 545.449 659.128 546.132 658.744C546.814 658.349 547.577 658.152 548.42 658.152C549.273 658.152 550.036 658.349 550.708 658.744C551.39 659.128 551.929 659.661 552.324 660.344C552.729 661.016 552.932 661.789 552.932 662.664C552.932 663.539 552.729 664.317 552.324 665C551.918 665.683 551.374 666.221 550.692 666.616C550.009 667 549.252 667.192 548.42 667.192ZM548.42 665.512C548.932 665.512 549.385 665.389 549.78 665.144C550.174 664.899 550.484 664.563 550.708 664.136C550.942 663.699 551.06 663.208 551.06 662.664C551.06 662.12 550.942 661.635 550.708 661.208C550.484 660.781 550.174 660.445 549.78 660.2C549.385 659.955 548.932 659.832 548.42 659.832C547.918 659.832 547.465 659.955 547.06 660.2C546.665 660.445 546.35 660.781 546.116 661.208C545.892 661.635 545.78 662.12 545.78 662.664C545.78 663.208 545.892 663.699 546.116 664.136C546.35 664.563 546.665 664.899 547.06 665.144C547.465 665.389 547.918 665.512 548.42 665.512Z" fill="white"></path>
<mask id="mask0_9_43" style="mask-type:alpha" maskUnits="userSpaceOnUse" x="564" y="648" width="24" height="24">
<rect x="564" y="648" width="24" height="24" fill="#D9D9D9"></rect>
</mask>
<g mask="url(#mask0_9_43)">
<path d="M580.175 661H569C568.717 661 568.479 660.904 568.287 660.712C568.096 660.521 568 660.283 568 660C568 659.717 568.096 659.479 568.287 659.287C568.479 659.096 568.717 659 569 659H580.175L575.275 654.1C575.075 653.9 574.979 653.667 574.988 653.4C574.996 653.133 575.1 652.9 575.3 652.7C575.5 652.517 575.733 652.421 576 652.412C576.267 652.404 576.5 652.5 576.7 652.7L583.3 659.3C583.4 659.4 583.471 659.508 583.512 659.625C583.554 659.742 583.575 659.867 583.575 660C583.575 660.133 583.554 660.258 583.512 660.375C583.471 660.492 583.4 660.6 583.3 660.7L576.7 667.3C576.517 667.483 576.287 667.575 576.012 667.575C575.737 667.575 575.5 667.483 575.3 667.3C575.1 667.1 575 666.862 575 666.587C575 666.312 575.1 666.075 575.3 665.875L580.175 661Z" fill="white"></path>
</g>
<defs>
<filter id="filter0_f_9_43" x="0" y="0" width="951" height="951" filterUnits="userSpaceOnUse" color-interpolation-filters="sRGB">
<feFlood flood-opacity="0" result="BackgroundImageFix"></feFlood>
<feBlend mode="normal" in="SourceGraphic" in2="BackgroundImageFix" result="shape"></feBlend>
<feGaussianBlur stdDeviation="100" result="effect1_foregroundBlur_9_43"></feGaussianBlur>
</filter>
<linearGradient id="paint0_linear_9_43" x1="532.385" y1="56.5868" x2="433.33" y2="742.028" gradientUnits="userSpaceOnUse">
<stop stop-color="#258777"></stop>
<stop offset="1" stop-color="white" stop-opacity="0"></stop>
</linearGradient>
</defs>
</svg>