<?xml version="1.0" encoding="UTF-8"?>
<svg id="Layer_1" xmlns="http://www.w3.org/2000/svg" version="1.1" viewBox="0 0 1096.96 437.15">
  
  <defs></defs>
  <path class="st1" d="M157.91,152.78v5.7h34.01v29.73h-33.02v100.59h-38.45v-100.59h-20.45v-29.73h20.45v-5.95c0-29.98,18.24-49.55,51.26-49.55,10.84,0,22.18,2.23,29.33,7.19l-10.1,28c-4.19-2.97-9.61-4.71-15.53-4.71-11.34,0-17.5,6.19-17.5,19.33h0ZM220.14,154.47h38.5v133.3h-38.5v-133.3Z"></path>
  <path class="st1" d="M423.49,211.89v75.87h-37.87v-69.96c0-21.43-9.71-31.29-26.46-31.29-18.21,0-31.32,11.33-31.32,35.72v65.53h-37.87v-132.52h36.17v15.52c10.2-11.33,25.49-17.49,43.21-17.49,30.83,0,54.14,18.23,54.14,58.63h0Z"></path>
  <path class="st1" d="M588.24,155.88v109.75c0,48.99-25.9,71.53-72.42,71.53-24.46,0-48.2-6.12-63.31-18.13l14.87-27.44c11.03,9.06,29.02,14.94,45.56,14.94,26.38,0,37.89-12.25,37.89-36.01v-5.63c-9.83,11.02-23.98,16.41-40.77,16.41-35.73,0-64.51-25.23-64.51-63.69s28.78-63.69,64.51-63.69c17.99,0,32.85,6.12,42.69,18.86v-16.9h35.49,0ZM551.31,217.61c0-19.35-14.15-32.34-33.81-32.34s-34.05,12.98-34.05,32.34,14.39,32.34,34.05,32.34,33.81-12.98,33.81-32.34Z"></path>
  <path class="st1" d="M736.41,212.42v75.33h-35.59v-16.44c-7.07,12.02-20.72,18.4-39.98,18.4-30.71,0-49-17.18-49-40s16.33-39.5,56.31-39.5h30.23c0-16.44-9.75-26.01-30.23-26.01-13.89,0-28.28,4.66-37.78,12.27l-13.65-26.74c14.38-10.31,35.59-15.95,56.55-15.95,39.98,0,63.14,18.65,63.14,58.64h0ZM698.38,246.04v-13.5h-26.08c-17.79,0-23.4,6.62-23.4,15.46,0,9.57,8.04,15.95,21.45,15.95,12.68,0,23.65-5.89,28.03-17.91Z"></path>
  <path class="st1" d="M852.82,281.98c-7.82,5.74-19.31,8.48-31.04,8.48-31.05,0-49.13-16.22-49.13-48.17v-55.16h-20.29v-29.95h20.29v-32.69h38.13v32.7h32.76v29.95h-32.76v54.66c0,11.48,6.11,17.72,16.38,17.72,5.62,0,11.24-1.75,15.4-4.99l10.27,27.45h-.01Z"></path>
  <g>
    <path class="st0" d="M256.24,100.08c.06.73-.31,1.3-.97,2.04l-30.65,34.56c-1.28,1.44-2.12,3.12-4,2.94l-.06-36.46,35.68-3.08Z"></path>
    <path class="st2" d="M220.62,139.62c1.53-.15,2.72-1.49,4-2.94l30.66-34.57c.66-.74,1.02-1.29.96-2.03.94-.08,2.59-.38,2.78,1.1l-.04,19.07-36.49,20.32c-.72.4-1.53.63-1.87.08"></path>
  </g>
  <path class="st1" d="M996.23,232.6h-99.32c3.66,16.42,17.57,26.47,37.58,26.47,13.91,0,23.92-4.17,32.95-12.75l20.26,22.06c-12.2,13.97-30.5,21.33-54.18,21.33-45.39,0-74.92-28.68-74.92-67.9s30.02-67.9,70.04-67.9,68.33,25.98,68.33,68.39c0,2.94-.49,7.11-.73,10.3h-.01ZM896.42,210.29h64.67c-2.68-16.67-15.13-27.45-32.21-27.45s-29.77,10.54-32.46,27.45h0Z"></path>
</svg>